  <svg
    width="396"
    height="341"
    viewBox="-50 -50 396 341"
    fill="none"
    xmlns="http://www.w3.org/2000/svg"
  >
    <defs>
      <linearGradient
        id="vueGradient"
        gradientUnits="userSpaceOnUse"
        x1="0"
        y1="0"
        x2="256"
        y2="0"
      >
        <stop
          offset="0%"
          style="stop-color: #41b883"
        >
          <animate
            attributeName="offset"
            values="-0.5;0.5;-0.5"
            dur="3s"
            repeatCount="indefinite"
          />
        </stop>
        <stop
          offset="50%"
          style="stop-color: #35495e"
        >
          <animate
            attributeName="offset"
            values="0;1;0"
            dur="3s"
            repeatCount="indefinite"
          />
        </stop>
        <stop
          offset="100%"
          style="stop-color: #41b883"
        >
          <animate
            attributeName="offset"
            values="0.5;1.5;0.5"
            dur="3s"
            repeatCount="indefinite"
          />
        </stop>
      </linearGradient>
      <filter
        id="shadow"
        x="-50%"
        y="-50%"
        width="200%"
        height="200%"
      >
        <feDropShadow
          dx="0"
          dy="8"
          stdDeviation="12"
          flood-color="#35495E"
          flood-opacity="0.4"
        />
      </filter>
      <filter
        id="cursorShadow"
        x="-50%"
        y="-50%"
        width="200%"
        height="200%"
      >
        <feDropShadow
          dx="0"
          dy="0"
          stdDeviation="3"
          flood-color="#35495E"
          flood-opacity="0.4"
        />
      </filter>
    </defs>
    <g opacity="0.5">
      <path
        d="M157.44 0L128 51.2L97.92 0H0L128 220.8L256 0H157.44Z"
        fill="#41B883"
      />
      <path
        d="M157.44 0L128 51.2L97.92 0H50.56L128 132.48L204.8 0H157.44Z"
        fill="#35495E"
      />
    </g>
    <g
      transform="translate(40, 20)"
      filter="url(#shadow)"
    >
      <path
        d="M157.44 0L128 51.2L97.92 0H0L128 220.8L256 0H157.44Z"
        fill="#41B883"
        stroke="url(#vueGradient)"
        stroke-width="2"
      />
      <path
        d="M157.44 0L128 51.2L97.92 0H50.56L128 132.48L204.8 0H157.44Z"
        fill="#35495E"
        stroke="url(#vueGradient)"
        stroke-width="2"
      />
    </g>

    <g
      transform="translate(130, 90) scale(4)"
      style="color: white"
    >
      <g
        fill="white"
        filter="url(#cursorShadow)"
      >
        <g
          opacity="1"
          transform="translate(-1.5, 0)"
        >
          <path
            d="M17.318 11.75c0 3.037-3.515 5.466-6 5.466s-7.5-3.429-7.5-6.466c0-1.935.233-1.98 2.5-2.5c.47-.108.208-3.775 1-4c1.5-.426 2.881-1.326 3.5-1.5c1 .5 2.204 1.06 2.5 1c1.665-.333 1 2.5 3 2c1.419.878 1 4.086 1 6"
          />
        </g>
        <path
          d="M7.183 3.72a1.875 1.875 0 0 1 3.645-.448a1.875 1.875 0 0 1 2.849 1.603v.21q.235-.084.5-.085h.375c1.035 0 1.875.84 1.875 1.875v4.56l.004.065c0 2.136-.806 3.774-2.043 4.874C13.16 17.465 11.538 18 9.931 18c-3.264 0-5.394-2.187-6.923-4.733a47 47 0 0 1-.978-1.559C.898 9.842 2.269 7.503 4.427 7.5V5.375A1.875 1.875 0 0 1 7.183 3.72m-.006 1.655a.875.875 0 1 0-1.75 0V10a.5.5 0 0 1-1 0V8.5c-1.403.003-2.257 1.51-1.542 2.69c.357.59.697 1.135.962 1.533l.006.01l.007.01C5.33 15.193 7.199 17 9.93 17c1.394 0 2.771-.465 3.794-1.374c1.001-.89 1.69-2.23 1.707-4.062l-.004-.064V6.875A.875.875 0 0 0 14.552 6h-.375a.5.5 0 0 0-.5.5v1a.5.5 0 1 1-1 0V4.875a.875.875 0 1 0-1.75 0V7a.5.5 0 1 1-1 0V3.875a.875.875 0 1 0-1.75 0V7.5a.5.5 0 0 1-1 0z"
          clip-rule="evenodd"
          fill="#35495f"
        />
      </g>
    </g>
  </svg>